# xmcd
#
# Track frame offsets:
#	150
#	17371
#	35993
#	56287
#	76868
#	90382
#	112530
#	133191
#	146683
#	161988
#	178434
#	195086
#	210148
#	227633
#	236349
#	247471
#	257410
#	277175
#	293581
#	308393
#
# Disc length: 4321 seconds
#
# Revision: 2
# Processed by: cddbd v1.5.2PL0 Copyright (c) Steve Scherf et al.
# Submitted via: EasyCDDAExtractor 12.0.1.1
#
DISCID=0710df14
DTITLE=Various Artist - The Ultimate Latin Album 9 CD2
DYEAR=2008
DGENRE=Latin
TTITLE0=Sasha - RB 23 - If You Believe
TTITLE1=Raphae - RB 23 - Ni Tu Ni Yo
TTITLE2=Julian Curwin - RB 24 - Libertango
TTITLE3=Dj Marc Mix - RB 25 - One Shining Moment
TTITLE4=Luis Miguel - RB 23 - El Reloj
TTITLE5=Roberto Carlos - RB 24 - Sentando A La Vera...
TTITLE6=Gloria Estefan - RB 22 - Me Voy
TTITLE7=Luis Miguel - RB 24 - Sin Ti
TTITLE8=Dj Diamond Mix - RB 25 - Will You Still Love Me...
TTITLE9=Mirko Casadei - JV 43 - No Me Moleste Mosquito
TTITLE10=Kenny Loggins - JV 43 - Footloose
TTITLE11=Lover Dogs - JV 40 - Oh Babe
TTITLE12=Wham - JV 41 - Wake Me Up Before You Go Go
TTITLE13=Elvis Presley - JV 39 - All Shook Up
TTITLE14=Juan&Gennaro - PD 59 - Espana Cani (with intro)
TTITLE15=Juan&Gennaro - PD 59 - My Heart Will Go On
TTITLE16=Dj Axel Force Mix - CC 31 - Clocks (Instrumental)
TTITLE17=Dj AShantis Mix - CC 31 - Primavera (Instrumental)
TTITLE18=Dj Daniel Mix - SB 50 - Miss You (Instrumental)
TTITLE19=Dj Diamond Mix - RB 25 - Will You Still Love Me... (Instrumental)
EXTD=YEAR: 2008
EXTT0=
EXTT1=
EXTT2=
EXTT3=
EXTT4=
EXTT5=
EXTT6=
EXTT7=
EXTT8=
EXTT9=
EXTT10=
EXTT11=
EXTT12=
EXTT13=
EXTT14=
EXTT15=
EXTT16=
EXTT17=
EXTT18=
EXTT19=
PLAYORDER=
